#define iconify_width 8
#define iconify_height 8
static unsigned char iconify_bits[] = {
   0xfb, 0xfb, 0x1b, 0xff, 0xff, 0xd8, 0xdf, 0xdf };
