#define iconify_width 8
#define iconify_height 8
static unsigned char iconify_bits[] = {
   0x42, 0x3c, 0x7e, 0xdb, 0xff, 0x66, 0xa5, 0x81 };
